<?xml version="1.0" encoding="UTF-8" standalone="no"?>
<!-- Created with Inkscape (http://www.inkscape.org/) -->

<svg
   width="76mm"
   height="76mm"
   viewBox="0 0 76 76"
   version="1.1"
   id="svg3999"
   inkscape:version="1.2 (dc2aedaf03, 2022-05-15)"
   sodipodi:docname="logo.svg"
   xmlns:inkscape="http://www.inkscape.org/namespaces/inkscape"
   xmlns:sodipodi="http://sodipodi.sourceforge.net/DTD/sodipodi-0.dtd"
   xmlns="http://www.w3.org/2000/svg"
   xmlns:svg="http://www.w3.org/2000/svg">
  <sodipodi:namedview
     id="namedview4001"
     pagecolor="#ffffff"
     bordercolor="#666666"
     borderopacity="1.0"
     inkscape:showpageshadow="2"
     inkscape:pageopacity="0.0"
     inkscape:pagecheckerboard="0"
     inkscape:deskcolor="#d1d1d1"
     inkscape:document-units="mm"
     showgrid="false"
     inkscape:zoom="0.77504209"
     inkscape:cx="130.3155"
     inkscape:cy="224.50394"
     inkscape:window-width="1920"
     inkscape:window-height="1011"
     inkscape:window-x="1920"
     inkscape:window-y="632"
     inkscape:window-maximized="1"
     inkscape:current-layer="layer1" />
  <defs
     id="defs3996" />
  <g
     inkscape:label="Layer 1"
     inkscape:groupmode="layer"
     id="layer1">
    <path
       style="fill:#666666;fill-opacity:1;stroke:none;stroke-width:1.32999;stroke-opacity:1;stop-color:#000000"
       d="m 57.650015,2.8356966 c -1.326949,0.043243 -2.698874,-0.080267 -3.998473,0.064368 -1.015677,1.581486 -1.902894,3.2907711 -2.869401,4.9211732 0.04843,0.5337493 0.887913,0.458425 1.284748,0.7354888 2.272519,1.0075492 3.610665,3.2539934 4.876866,5.2736064 0.38363,0.640635 0.636296,1.363535 1.074476,1.967436 0.557172,0.07504 0.365812,-0.815496 0.540609,-1.168329 0.709126,-3.655033 1.337969,-7.3764769 2.818128,-10.8147399 0.658405,-0.7190105 0.187166,-1.2230947 -0.677498,-0.9819561 -1.016486,0.00106 -2.032971,0.00185 -3.049455,0.00296 z"
       id="path2672" />
    <path
       style="fill:#535353;fill-opacity:1;stroke:none;stroke-width:1.33;stroke-opacity:1;stop-color:#000000"
       d="m 63.229538,2.9098328 c -0.512929,0.1977946 -0.655622,0.8509344 -0.919956,1.2841737 -1.205953,2.6835418 -1.729894,5.60569 -2.350866,8.4640105 -0.367334,1.887352 -0.718658,3.78805 -0.951412,5.69223 2.062771,5.218403 3.663262,10.621046 4.757473,16.125004 0.499843,0.472977 0.436266,-0.574889 0.497734,-0.895453 C 64.949708,26.650646 64.956024,19.671729 64.766579,12.71732 64.612838,9.5617356 64.559744,6.3389148 63.624426,3.2952196 63.558486,3.1228542 63.449341,2.894831 63.229538,2.9098328 Z"
       id="path2674" />
    <path
       style="fill:#cecece;fill-opacity:1;stroke:#000000;stroke-width:1.33;stroke-opacity:1;stop-color:#000000"
       d="M 56.750894,98.655432 H 76.6754 c 1.969454,0 6.406824,-1.947292 6.406824,-6.406827 V 69.746756 c 0,-13.371437 -6.704081,-29.526511 -8.559522,-31.944569 -1.855441,-2.418058 -2.816164,-4.46959 -7.741555,-4.46959 -2.462696,0 -4.970259,-0.01015 -6.862148,-0.02031 -1.89189,-0.01015 -3.168105,-0.02031 -3.168105,-0.02031 0,0 -1.276216,0.01015 -3.168105,0.02031 -1.891889,0.01015 -4.399453,0.02031 -6.862148,0.02031 -4.925391,0 -5.886114,2.051532 -7.741555,4.46959 -1.855441,2.418058 -8.559522,18.573132 -8.559522,31.944569 v 22.501849 c 0,4.459535 4.43737,6.406827 6.406824,6.406827 z"
       id="path2676"
       class="UnoptimicedTransforms"
       transform="translate(-18.750893,-24.968421)"
       sodipodi:nodetypes="czzszsscssssscc" />
    <rect
       style="fill:#e8e8e8;fill-opacity:1;stroke:#202020;stroke-width:1.33;stroke-opacity:1;stop-color:#000000"
       id="rect2678"
       width="39.644917"
       height="33.407852"
       x="18.177546"
       y="35.759838"
       rx="3.3658512"
       ry="4.0676751" />
    <rect
       style="fill:#74726a;fill-opacity:1;stroke:#202020;stroke-width:1.33;stroke-opacity:1;stop-color:#000000"
       id="rect2680"
       width="23.620592"
       height="13.28153"
       x="26.189707"
       y="17.314262"
       rx="2.0053868"
       ry="1.6171333" />
    <path
       id="path2682"
       style="fill:none;fill-opacity:1;stroke:#000000;stroke-width:1.33;stroke-opacity:1;stop-color:#000000"
       d="m 49.815131,8.471523 3.55563,-6.158535 h 9.99775 m -4.88105,16.010483 c 0,0 2.21078,-16.010483 4.88105,-16.010483 2.67026,0 2.48675,28.25659 0.76769,35.361213"
       sodipodi:nodetypes="ccccsc" />
    <path
       d="m 39.141335,53.849672 -2.486476,0.122286 q -0.163047,0 -0.163047,-0.529905 0,-0.529905 0.366857,-1.793524 0.366857,-1.263619 0.937524,-1.834285 0.570666,-0.570667 9.619809,-0.570667 2.323428,0 2.323428,0.203809 0,0.937524 -0.529905,2.568 -0.489143,1.589714 -0.856,2.119619 -0.04076,10.964952 -0.285333,11.372571 -0.20381,0.407619 -1.467429,0.896762 -1.263618,0.529904 -2.16038,0.529904 -0.856,0 -0.856,-0.122285 0,-2.201143 -0.20381,-2.649524 l -0.08152,-0.08152 -0.122285,0.08152 q -2.404952,2.404952 -6.277333,2.404952 -5.299047,0 -7.989333,-3.424 -2.649524,-3.423999 -2.649524,-8.845332 0,-4.565333 1.671238,-8.274666 1.05981,-2.323429 2.690286,-4.035429 1.671238,-1.711999 4.565333,-2.853333 2.934857,-1.141333 6.766476,-1.141333 0.856,0 2.36419,0.20381 1.50819,0.203809 1.589714,0.326095 0.122286,0.122285 0.122286,0.896762 0,0.774476 -0.20381,2.119619 -0.203809,1.345142 -0.448381,1.589714 -1.263619,-0.652191 -4.279999,-0.652191 -4.320762,0 -6.888762,2.894095 -2.567999,2.894095 -2.567999,8.478476 0,3.587047 1.467428,5.747428 1.467428,2.160381 4.116952,2.160381 2.649524,0 4.28,-1.304381 1.671238,-1.304381 1.671238,-2.201143 v -1.304381 q 0,-2.486476 -0.244572,-2.731047 -0.285333,-0.366857 -3.790857,-0.366857 z"
       id="path5849"
       style="font-size:40.7619px;line-height:1;font-family:'Bubblegum Sans';-inkscape-font-specification:'Bubblegum Sans, Normal';font-variant-ligatures:none;text-align:center;letter-spacing:0px;text-anchor:middle;stroke-width:0.264583" />
    <path
       style="fill:#666666;fill-opacity:1;stroke:none;stroke-width:1.32999;stroke-opacity:1;stop-color:#000000"
       d="m 18.349989,2.835697 c 1.32695,0.04324 2.69887,-0.08027 3.99847,0.06437 1.01568,1.581486 1.9029,3.290771 2.8694,4.921174 -0.0484,0.533749 -0.88791,0.458425 -1.28475,0.735488 -2.27251,1.00755 -3.61066,3.253994 -4.87686,5.273607 -0.38363,0.640635 -0.6363,1.363535 -1.07448,1.967436 -0.55717,0.07504 -0.36581,-0.815496 -0.54061,-1.168329 -0.70912,-3.655033 -1.33797,-7.376477 -2.81812,-10.81474 -0.65841,-0.719011 -0.18717,-1.223095 0.67749,-0.981956 1.01649,0.0011 2.03297,0.0019 3.04946,0.003 z"
       id="path2688" />
    <path
       style="fill:#535353;fill-opacity:1;stroke:none;stroke-width:1.33;stroke-opacity:1;stop-color:#000000"
       d="m 12.770469,2.909833 c 0.51292,0.197794 0.65562,0.850934 0.91995,1.284174 1.20595,2.683541 1.7299,5.60569 2.35087,8.46401 0.36733,1.887352 0.71866,3.78805 0.95141,5.69223 -2.06277,5.218403 -3.66326,10.621046 -4.75747,16.125004 -0.49985,0.472977 -0.43627,-0.574889 -0.49774,-0.895453 -0.68719,-6.929152 -0.69351,-13.908069 -0.50407,-20.862478 0.15375,-3.155584 0.20684,-6.378405 1.14216,-9.4221 0.0659,-0.172366 0.17508,-0.400389 0.39489,-0.385387 z"
       id="path2690" />
    <path
       id="path2692"
       style="fill:none;fill-opacity:1;stroke:#000000;stroke-width:1.33;stroke-opacity:1;stop-color:#000000"
       d="m 26.184869,8.471523 -3.55563,-6.158535 h -9.99775 m 4.88105,16.010483 c 0,0 -2.21078,-16.010483 -4.88105,-16.010483 -2.67026,0 -2.48675,28.25659 -0.76769,35.361213"
       sodipodi:nodetypes="ccccsc" />
    <path
       style="fill:none;fill-opacity:1;stroke:#000000;stroke-width:2;stroke-dasharray:none;stroke-opacity:1;stop-color:#000000"
       d="m 34.831891,8.343866 c 0,0 0,-3.290218 2.11207,-3.290218 2.11207,0 0,0 2.11207,0 2.11207,0 2.11207,3.290218 2.11207,3.290218"
       id="path2694"
       sodipodi:nodetypes="czzc" />
  </g>
</svg>
